<svg id="svg" version="1.1" xmlns="http://www.w3.org/2000/svg" xmlns:xlink="http://www.w3.org/1999/xlink" width="400" height="400" viewBox="0, 0, 400,400"><g id="svgg"><path id="path0" d="M153.200 67.316 C 152.650 67.569,152.061 67.998,151.891 68.269 C 151.721 68.539,151.349 68.994,151.064 69.280 C 150.779 69.566,150.350 70.365,150.110 71.055 C 149.584 72.565,148.058 74.400,147.328 74.400 C 147.038 74.400,146.800 74.580,146.800 74.800 C 146.800 75.060,140.873 75.200,129.819 75.200 C 110.010 75.200,110.011 75.200,108.621 79.140 C 107.942 81.065,106.481 82.664,105.080 83.016 C 104.486 83.165,104.000 83.430,104.000 83.604 C 104.000 83.779,103.477 84.104,102.838 84.327 C 102.198 84.550,101.556 85.107,101.411 85.566 C 101.265 86.025,101.014 86.400,100.853 86.400 C 100.692 86.400,100.331 87.035,100.050 87.812 C 98.888 91.026,98.158 91.376,92.147 91.600 C 88.891 91.721,86.658 91.974,86.485 92.240 C 86.328 92.482,85.810 92.886,85.333 93.137 C 84.855 93.388,84.346 94.135,84.201 94.797 C 84.055 95.459,83.726 96.005,83.468 96.012 C 83.211 96.019,83.315 96.208,83.700 96.432 C 84.085 96.656,84.400 97.035,84.400 97.274 C 84.400 97.771,86.058 99.389,87.187 99.993 C 88.399 100.642,245.756 100.550,246.860 99.900 C 250.281 97.886,251.076 94.492,248.445 93.139 C 247.870 92.843,247.272 92.421,247.115 92.201 C 246.946 91.963,243.023 91.719,237.460 91.600 C 226.895 91.375,226.809 91.348,225.576 87.900 C 225.281 87.075,224.924 86.400,224.784 86.400 C 224.643 86.400,224.331 85.967,224.090 85.437 C 223.824 84.854,223.168 84.369,222.426 84.206 C 221.752 84.058,221.200 83.771,221.200 83.568 C 221.200 83.350,214.205 83.200,203.987 83.200 L 186.773 83.200 185.387 81.813 C 184.624 81.051,184.000 80.151,184.000 79.813 C 184.000 79.476,183.856 79.200,183.680 79.200 C 183.505 79.200,183.139 78.587,182.868 77.839 C 182.139 75.821,180.238 75.200,174.792 75.200 C 172.131 75.200,170.400 75.042,170.400 74.800 C 170.400 74.580,170.162 74.400,169.872 74.400 C 169.143 74.400,167.617 72.567,167.092 71.061 C 166.852 70.374,166.329 69.461,165.928 69.031 C 165.528 68.601,165.200 68.139,165.200 68.005 C 165.200 66.897,155.335 66.330,153.200 67.316 M78.635 108.924 C 77.449 109.662,76.249 110.895,75.700 111.940 C 74.983 113.305,74.965 303.816,75.682 305.481 C 76.525 307.440,78.639 308.953,79.908 308.506 C 81.657 307.892,81.600 310.523,81.600 229.820 C 81.600 179.273,81.735 153.600,82.000 153.600 C 82.220 153.600,82.400 153.366,82.400 153.080 C 82.400 152.107,83.397 150.400,84.098 150.173 C 84.481 150.049,85.098 149.644,85.469 149.274 C 86.095 148.648,92.155 148.586,171.338 148.400 C 241.237 148.236,256.565 148.106,256.709 147.674 C 256.805 147.385,257.315 146.984,257.842 146.784 L 258.800 146.420 258.800 129.629 C 258.800 110.448,258.791 110.389,255.476 108.900 C 253.890 108.188,79.779 108.211,78.635 108.924 M270.193 125.739 C 267.529 127.259,266.800 128.948,266.800 133.600 C 266.800 137.678,267.032 138.526,268.595 140.166 C 270.236 141.888,270.923 142.000,279.846 142.000 C 284.551 142.000,288.400 142.136,288.400 142.302 C 288.400 142.469,288.929 142.839,289.576 143.125 C 290.393 143.487,290.958 144.186,291.430 145.423 C 291.803 146.400,292.220 147.200,292.357 147.200 C 292.493 147.200,292.832 147.712,293.109 148.339 C 293.464 149.140,294.084 149.618,295.206 149.955 C 296.083 150.217,296.800 150.605,296.800 150.816 C 296.800 151.027,297.044 151.200,297.342 151.200 C 299.129 151.200,300.000 153.575,300.000 158.449 C 300.000 161.775,300.152 163.297,300.522 163.671 C 300.810 163.962,301.171 164.532,301.324 164.938 C 301.478 165.344,301.963 165.770,302.402 165.885 C 302.841 165.999,303.200 166.238,303.200 166.416 C 303.200 166.593,303.839 166.949,304.619 167.206 C 305.400 167.464,306.525 168.153,307.119 168.737 L 308.200 169.800 308.304 220.817 L 308.409 271.835 307.346 273.117 C 306.762 273.823,306.040 274.400,305.742 274.400 C 305.444 274.400,305.200 274.551,305.200 274.736 C 305.200 274.921,304.460 275.316,303.556 275.615 C 302.565 275.942,301.744 276.524,301.491 277.079 C 301.260 277.585,300.935 278.000,300.768 278.000 C 300.600 278.000,300.350 278.518,300.211 279.152 C 300.071 279.785,299.416 280.910,298.754 281.652 L 297.551 283.000 284.283 283.116 C 273.149 283.213,270.961 283.326,270.687 283.816 C 270.507 284.137,270.165 284.400,269.926 284.400 C 269.429 284.400,267.811 286.058,267.207 287.187 C 266.617 288.289,266.689 295.823,267.300 296.860 C 267.939 297.946,269.254 299.261,270.340 299.900 C 270.982 300.278,275.226 300.400,287.776 300.400 C 307.174 300.400,306.935 300.445,308.519 296.485 C 309.285 294.572,310.705 292.800,311.472 292.800 C 311.762 292.800,312.000 292.649,312.000 292.464 C 312.000 292.279,312.740 291.884,313.644 291.585 C 314.635 291.258,315.456 290.676,315.709 290.121 C 315.940 289.615,316.265 289.200,316.432 289.200 C 316.600 289.200,316.850 288.682,316.989 288.048 C 317.296 286.653,319.066 284.609,320.300 284.226 C 320.795 284.072,321.200 283.793,321.200 283.605 C 321.200 283.417,321.741 283.145,322.403 282.999 C 323.065 282.854,323.812 282.345,324.063 281.867 C 324.314 281.390,324.718 280.872,324.960 280.715 C 325.577 280.315,325.588 145.296,324.971 144.885 C 324.735 144.728,324.419 144.268,324.269 143.862 C 324.119 143.456,323.637 143.030,323.198 142.915 C 322.759 142.801,322.400 142.584,322.400 142.434 C 322.400 142.284,321.725 141.919,320.900 141.623 C 319.083 140.971,317.833 139.701,317.150 137.812 C 316.869 137.035,316.508 136.400,316.347 136.400 C 316.186 136.400,315.935 136.025,315.789 135.566 C 315.644 135.107,315.002 134.550,314.362 134.327 C 313.723 134.104,313.200 133.779,313.200 133.604 C 313.200 133.430,312.714 133.165,312.120 133.016 C 310.719 132.664,309.258 131.065,308.579 129.140 C 307.952 127.362,307.052 126.358,305.481 125.682 C 303.934 125.015,271.368 125.068,270.193 125.739 M103.100 161.666 L 102.000 162.901 102.000 179.408 L 102.000 195.915 103.194 197.194 L 104.389 198.473 105.594 197.267 L 106.800 196.062 106.800 179.400 L 106.800 162.738 105.631 161.569 C 104.227 160.165,104.444 160.157,103.100 161.666 M103.089 220.041 L 102.000 221.282 102.000 229.416 L 102.000 237.551 103.189 238.853 L 104.379 240.155 105.578 238.977 L 106.778 237.800 106.789 229.464 L 106.800 221.128 105.701 219.964 C 104.349 218.532,104.415 218.530,103.089 220.041 M85.677 310.672 C 83.676 311.474,83.200 312.693,83.200 317.018 C 83.200 319.318,83.366 321.200,83.568 321.200 C 83.771 321.200,84.058 321.752,84.206 322.426 C 84.369 323.168,84.854 323.824,85.437 324.090 C 85.967 324.331,86.400 324.643,86.400 324.784 C 86.400 324.924,87.075 325.281,87.900 325.576 C 89.802 326.256,90.944 327.398,91.624 329.300 C 91.919 330.125,92.276 330.800,92.416 330.800 C 92.557 330.800,92.869 331.233,93.110 331.763 C 93.376 332.346,94.032 332.831,94.774 332.994 C 95.448 333.142,96.000 333.429,96.000 333.632 C 96.000 333.845,99.621 334.000,104.581 334.000 C 112.586 334.000,115.200 334.293,115.200 335.189 C 115.200 335.332,115.515 335.798,115.900 336.225 C 116.285 336.651,116.870 337.535,117.200 338.188 C 117.929 339.630,119.066 340.830,120.340 341.500 C 121.085 341.892,131.210 342.000,167.013 342.000 C 217.424 342.000,214.376 342.150,215.685 339.601 C 215.967 339.050,216.424 338.456,216.699 338.280 C 216.975 338.104,217.200 337.732,217.200 337.452 C 217.200 337.173,217.751 336.327,218.424 335.572 L 219.648 334.200 228.824 334.079 C 233.871 334.013,238.000 333.824,238.000 333.659 C 238.000 333.495,238.618 333.137,239.373 332.864 C 240.452 332.474,240.892 331.986,241.427 330.584 C 241.802 329.603,242.220 328.800,242.357 328.800 C 242.493 328.800,242.839 328.271,243.125 327.624 C 243.487 326.807,244.186 326.242,245.423 325.770 C 246.400 325.397,247.200 324.980,247.200 324.843 C 247.200 324.707,247.710 324.369,248.334 324.093 C 249.787 323.450,250.735 320.900,249.670 320.501 C 249.301 320.363,248.790 319.968,248.533 319.625 C 248.123 319.078,245.857 318.986,230.382 318.884 L 212.699 318.768 211.560 319.884 C 210.934 320.498,210.417 321.212,210.411 321.471 C 210.405 321.731,210.175 322.181,209.900 322.471 C 209.625 322.762,209.132 323.518,208.805 324.152 C 208.477 324.786,207.577 325.596,206.805 325.952 C 206.032 326.308,205.340 326.735,205.267 326.900 C 205.074 327.333,128.800 327.276,128.800 326.843 C 128.800 326.647,128.305 326.364,127.700 326.215 C 126.372 325.886,124.743 324.194,123.981 322.352 C 123.673 321.608,122.915 320.505,122.297 319.900 L 121.172 318.800 108.215 318.800 C 98.397 318.800,95.129 318.679,94.729 318.300 C 94.438 318.025,93.704 317.544,93.099 317.232 C 92.493 316.919,91.694 315.974,91.322 315.132 C 90.950 314.289,90.501 313.600,90.323 313.600 C 90.145 313.600,90.000 313.374,90.000 313.099 C 90.000 311.668,87.165 310.077,85.677 310.672 " stroke="none" fill="#f4f4f4" fill-rule="evenodd"></path><path id="path1" d="M86.889 153.423 L 86.000 154.045 86.000 227.267 L 86.000 300.489 87.300 300.255 C 88.015 300.127,89.365 299.904,90.300 299.760 C 91.235 299.616,92.000 299.341,92.000 299.149 C 92.000 298.957,92.363 298.800,92.806 298.800 C 93.864 298.800,96.800 297.878,96.800 297.546 C 96.800 297.403,97.251 297.173,97.803 297.035 C 98.794 296.786,102.800 293.128,102.800 292.471 C 102.800 291.978,105.107 290.000,105.682 290.000 C 105.952 290.000,106.538 289.643,106.986 289.207 C 108.990 287.255,111.038 285.604,111.457 285.602 C 111.709 285.601,112.017 285.333,112.142 285.007 C 112.267 284.681,113.096 284.298,113.985 284.156 C 114.873 284.014,115.600 283.770,115.600 283.613 C 115.600 282.402,123.307 282.406,124.400 283.617 C 124.710 283.961,127.793 284.800,128.746 284.800 C 129.216 284.800,129.600 284.950,129.600 285.133 C 129.600 285.316,130.995 285.807,132.700 286.223 C 134.405 286.639,135.890 287.092,136.000 287.228 C 136.110 287.365,136.665 287.590,137.232 287.729 C 137.800 287.868,139.083 288.776,140.082 289.748 C 141.082 290.719,142.282 291.636,142.750 291.784 C 143.217 291.932,143.600 292.200,143.600 292.378 C 143.600 292.557,144.140 292.927,144.800 293.200 C 145.460 293.473,146.003 293.900,146.006 294.149 C 146.010 294.468,146.099 294.463,146.311 294.131 C 146.475 293.872,148.495 293.454,150.800 293.200 C 153.105 292.946,155.083 292.609,155.195 292.450 C 155.308 292.291,156.525 291.827,157.900 291.417 C 159.275 291.008,160.400 290.542,160.400 290.381 C 160.400 290.221,161.028 289.971,161.795 289.827 C 162.573 289.681,163.376 289.219,163.609 288.783 C 163.840 288.352,164.297 288.000,164.627 288.000 C 164.956 288.000,165.331 287.723,165.461 287.385 C 165.591 287.047,166.260 286.480,166.948 286.126 C 167.637 285.771,168.435 285.148,168.723 284.740 C 169.010 284.333,169.462 284.000,169.726 284.000 C 169.991 284.000,170.432 283.640,170.707 283.200 C 170.982 282.760,171.475 282.400,171.803 282.400 C 172.132 282.400,172.400 282.257,172.400 282.082 C 172.400 281.907,173.199 281.434,174.177 281.031 C 175.154 280.628,176.048 280.051,176.164 279.749 C 176.280 279.447,176.642 279.200,176.968 279.200 C 177.294 279.200,177.736 278.885,177.951 278.500 C 178.283 277.906,179.077 277.780,183.197 277.666 C 186.813 277.566,188.104 277.394,188.259 276.990 C 188.373 276.693,188.967 276.339,189.579 276.205 C 190.191 276.070,191.062 275.615,191.515 275.194 C 191.967 274.772,193.206 274.211,194.269 273.946 C 195.331 273.681,196.435 273.135,196.723 272.732 C 197.010 272.330,197.415 272.000,197.623 272.000 C 198.122 272.000,199.600 270.508,199.600 270.003 C 199.600 269.785,199.960 269.382,200.400 269.107 C 200.840 268.832,201.200 268.413,201.200 268.176 C 201.200 267.939,201.622 267.378,202.137 266.929 C 202.653 266.481,203.328 265.755,203.637 265.317 C 203.947 264.878,204.813 264.203,205.562 263.817 C 207.305 262.919,207.634 262.652,210.274 260.000 C 213.277 256.983,213.600 256.601,213.600 256.070 C 213.600 255.815,213.956 255.384,214.392 255.112 C 214.879 254.808,215.365 253.807,215.655 252.509 C 215.915 251.349,216.262 250.400,216.428 250.400 C 216.593 250.400,216.940 249.140,217.200 247.600 C 217.460 246.060,217.802 244.800,217.960 244.800 C 218.118 244.800,218.576 243.180,218.978 241.200 C 219.380 239.220,219.831 237.600,219.980 237.600 C 220.129 237.600,220.498 236.970,220.800 236.200 C 221.102 235.430,221.488 234.800,221.659 234.800 C 221.829 234.800,222.184 234.080,222.447 233.200 C 222.711 232.320,223.061 231.600,223.224 231.600 C 223.677 231.600,224.400 229.246,224.400 227.774 C 224.400 227.055,224.563 226.407,224.762 226.333 C 226.308 225.764,226.317 205.200,224.771 205.200 C 224.606 205.200,224.249 203.580,223.978 201.600 C 223.708 199.620,223.361 198.000,223.208 198.000 C 223.055 198.000,222.691 196.200,222.400 194.000 C 222.109 191.800,221.749 190.000,221.600 190.000 C 221.451 190.000,221.088 188.425,220.794 186.500 C 220.499 184.575,220.065 182.872,219.829 182.715 C 219.543 182.524,219.400 179.130,219.400 172.515 L 219.400 162.600 221.074 160.926 C 222.126 159.874,223.540 158.981,224.874 158.526 C 226.044 158.126,227.090 157.682,227.201 157.537 C 227.311 157.392,228.091 157.144,228.932 156.986 C 229.774 156.828,230.764 156.376,231.131 155.982 C 231.499 155.588,232.295 155.141,232.900 154.989 C 233.505 154.837,234.000 154.553,234.000 154.357 C 234.000 153.767,245.896 153.907,246.135 154.500 C 246.246 154.775,246.351 154.505,246.368 153.900 L 246.400 152.800 167.089 152.800 C 95.954 152.800,87.686 152.864,86.889 153.423 M106.083 156.816 C 110.567 158.062,110.796 159.158,110.796 179.400 C 110.796 199.350,110.466 201.047,106.437 201.853 C 105.757 201.989,105.200 202.258,105.200 202.450 C 105.200 202.643,104.840 202.800,104.400 202.800 C 103.960 202.800,103.600 202.643,103.600 202.450 C 103.600 202.258,103.100 202.000,102.488 201.878 C 100.926 201.565,98.926 199.518,98.426 197.720 C 97.357 193.867,98.009 159.200,99.152 159.200 C 99.293 159.200,99.914 158.731,100.532 158.158 C 101.529 157.234,103.026 156.531,104.200 156.437 C 104.420 156.419,105.268 156.590,106.083 156.816 M105.200 214.750 C 105.200 214.943,105.757 215.211,106.437 215.347 C 109.992 216.058,110.796 218.650,110.796 229.400 C 110.796 240.150,109.992 242.742,106.437 243.453 C 105.757 243.589,105.200 243.857,105.200 244.050 C 105.200 244.243,104.840 244.400,104.400 244.400 C 103.960 244.400,103.600 244.243,103.600 244.050 C 103.600 243.857,103.100 243.600,102.488 243.478 C 98.831 242.746,98.004 240.150,98.004 229.400 C 98.004 218.650,98.831 216.054,102.488 215.322 C 103.100 215.200,103.600 214.943,103.600 214.750 C 103.600 214.558,103.960 214.400,104.400 214.400 C 104.840 214.400,105.200 214.558,105.200 214.750 " stroke="none" fill="#fbbc14" fill-rule="evenodd"></path><path id="path2" d="M146.880 55.280 C 146.575 55.585,146.400 57.120,146.400 59.480 L 146.400 63.200 126.080 63.200 C 102.693 63.200,104.800 62.756,104.800 67.680 L 104.800 71.200 101.144 71.200 C 96.552 71.200,96.430 71.327,96.413 76.100 L 96.400 79.600 88.800 79.600 C 79.391 79.600,79.600 79.487,79.600 84.600 L 79.600 88.000 76.089 88.000 C 71.487 88.000,71.200 88.294,71.200 93.005 L 71.200 96.400 67.680 96.400 C 65.476 96.400,63.981 96.579,63.680 96.880 C 62.981 97.579,62.981 311.221,63.680 311.920 C 63.981 312.221,65.476 312.400,67.680 312.400 L 71.200 312.400 71.200 319.995 C 71.200 329.474,71.055 329.200,76.089 329.200 L 79.600 329.200 79.600 332.600 C 79.600 337.228,79.972 337.600,84.600 337.600 L 88.000 337.600 88.000 341.111 C 88.000 346.145,87.726 346.000,97.205 346.000 L 104.800 346.000 104.800 349.520 C 104.800 351.724,104.979 353.219,105.280 353.520 C 105.918 354.158,227.236 354.223,228.426 353.586 C 229.103 353.224,229.200 352.722,229.200 349.586 L 229.200 346.000 236.800 346.000 C 246.209 346.000,246.000 346.113,246.000 341.000 L 246.000 337.600 249.456 337.600 C 253.821 337.600,253.970 337.439,253.987 332.700 L 254.000 329.200 257.786 329.200 C 262.620 329.200,262.400 329.637,262.400 320.026 L 262.400 312.400 286.920 312.400 C 315.128 312.400,312.400 312.901,312.400 307.720 L 312.400 304.000 315.826 304.000 C 320.726 304.000,320.800 303.935,320.800 299.586 L 320.800 296.000 324.195 296.000 C 328.906 296.000,329.200 295.713,329.200 291.111 L 329.200 287.600 332.600 287.600 C 335.467 287.600,336.125 287.475,336.800 286.800 C 337.966 285.634,338.075 140.164,336.911 138.805 C 336.318 138.112,335.734 138.000,332.711 138.000 L 329.200 138.000 329.200 134.489 C 329.200 129.887,328.906 129.600,324.195 129.600 L 320.800 129.600 320.800 126.089 C 320.800 121.487,320.506 121.200,315.795 121.200 L 312.400 121.200 312.400 117.680 C 312.400 112.756,314.507 113.200,291.120 113.200 L 270.800 113.200 270.800 109.414 C 270.800 104.838,270.759 104.800,265.826 104.800 L 262.400 104.800 262.400 97.174 C 262.400 87.563,262.620 88.000,257.786 88.000 L 254.000 88.000 253.987 84.500 C 253.968 79.207,255.005 79.600,241.056 79.600 L 229.200 79.600 229.200 76.089 C 229.200 70.737,231.248 71.200,207.595 71.200 L 187.600 71.200 187.600 67.744 C 187.600 63.042,187.974 63.228,178.500 63.213 L 170.800 63.200 170.800 59.414 C 170.800 56.080,170.708 55.579,170.026 55.214 C 168.869 54.595,147.504 54.656,146.880 55.280 M163.872 67.280 C 164.602 67.545,165.200 67.871,165.200 68.005 C 165.200 68.139,165.528 68.601,165.928 69.031 C 166.329 69.461,166.852 70.374,167.092 71.061 C 167.617 72.567,169.143 74.400,169.872 74.400 C 170.162 74.400,170.400 74.580,170.400 74.800 C 170.400 75.042,172.131 75.200,174.792 75.200 C 180.238 75.200,182.139 75.821,182.868 77.839 C 183.139 78.587,183.505 79.200,183.680 79.200 C 183.856 79.200,184.000 79.476,184.000 79.813 C 184.000 80.151,184.624 81.051,185.387 81.813 L 186.773 83.200 203.987 83.200 C 214.205 83.200,221.200 83.350,221.200 83.568 C 221.200 83.771,221.752 84.058,222.426 84.206 C 223.168 84.369,223.824 84.854,224.090 85.437 C 224.331 85.967,224.643 86.400,224.784 86.400 C 224.924 86.400,225.281 87.075,225.576 87.900 C 226.809 91.348,226.895 91.375,237.460 91.600 C 243.023 91.719,246.946 91.963,247.115 92.201 C 247.272 92.421,247.870 92.843,248.445 93.139 C 251.076 94.492,250.281 97.886,246.860 99.900 C 245.756 100.550,88.399 100.642,87.187 99.993 C 86.058 99.389,84.400 97.771,84.400 97.274 C 84.400 97.035,84.085 96.656,83.700 96.432 C 83.315 96.208,83.211 96.019,83.468 96.012 C 83.726 96.005,84.055 95.459,84.201 94.797 C 84.346 94.135,84.855 93.388,85.333 93.137 C 85.810 92.886,86.328 92.482,86.485 92.240 C 86.658 91.974,88.891 91.721,92.147 91.600 C 98.158 91.376,98.888 91.026,100.050 87.812 C 100.331 87.035,100.692 86.400,100.853 86.400 C 101.014 86.400,101.265 86.025,101.411 85.566 C 101.556 85.107,102.198 84.550,102.838 84.327 C 103.477 84.104,104.000 83.779,104.000 83.604 C 104.000 83.430,104.486 83.165,105.080 83.016 C 106.481 82.664,107.942 81.065,108.621 79.140 C 110.011 75.200,110.010 75.200,129.819 75.200 C 140.873 75.200,146.800 75.060,146.800 74.800 C 146.800 74.580,147.038 74.400,147.328 74.400 C 148.058 74.400,149.584 72.565,150.110 71.055 C 150.350 70.365,150.779 69.566,151.064 69.280 C 151.349 68.994,151.721 68.539,151.891 68.269 C 152.774 66.863,160.871 66.195,163.872 67.280 M255.476 108.900 C 258.791 110.389,258.800 110.448,258.800 129.629 L 258.800 146.420 257.842 146.784 C 257.315 146.984,256.805 147.385,256.709 147.674 C 256.565 148.106,241.237 148.236,171.338 148.400 C 92.155 148.586,86.095 148.648,85.469 149.274 C 85.098 149.644,84.481 150.049,84.098 150.173 C 83.397 150.400,82.400 152.107,82.400 153.080 C 82.400 153.366,82.220 153.600,82.000 153.600 C 81.735 153.600,81.600 179.273,81.600 229.820 C 81.600 310.523,81.657 307.892,79.908 308.506 C 78.639 308.953,76.525 307.440,75.682 305.481 C 74.965 303.816,74.983 113.305,75.700 111.940 C 76.249 110.895,77.449 109.662,78.635 108.924 C 79.779 108.211,253.890 108.188,255.476 108.900 M305.481 125.682 C 307.052 126.358,307.952 127.362,308.579 129.140 C 309.258 131.065,310.719 132.664,312.120 133.016 C 312.714 133.165,313.200 133.430,313.200 133.604 C 313.200 133.779,313.723 134.104,314.362 134.327 C 315.002 134.550,315.644 135.107,315.789 135.566 C 315.935 136.025,316.186 136.400,316.347 136.400 C 316.508 136.400,316.869 137.035,317.150 137.812 C 317.833 139.701,319.083 140.971,320.900 141.623 C 321.725 141.919,322.400 142.284,322.400 142.434 C 322.400 142.584,322.759 142.801,323.198 142.915 C 323.637 143.030,324.119 143.456,324.269 143.862 C 324.419 144.268,324.735 144.728,324.971 144.885 C 325.588 145.296,325.577 280.315,324.960 280.715 C 324.718 280.872,324.314 281.390,324.063 281.867 C 323.812 282.345,323.065 282.854,322.403 282.999 C 321.741 283.145,321.200 283.417,321.200 283.605 C 321.200 283.793,320.795 284.072,320.300 284.226 C 319.066 284.609,317.296 286.653,316.989 288.048 C 316.850 288.682,316.600 289.200,316.432 289.200 C 316.265 289.200,315.940 289.615,315.709 290.121 C 315.456 290.676,314.635 291.258,313.644 291.585 C 312.740 291.884,312.000 292.279,312.000 292.464 C 312.000 292.649,311.762 292.800,311.472 292.800 C 310.705 292.800,309.285 294.572,308.519 296.485 C 306.935 300.445,307.174 300.400,287.776 300.400 C 275.226 300.400,270.982 300.278,270.340 299.900 C 269.254 299.261,267.939 297.946,267.300 296.860 C 266.689 295.823,266.617 288.289,267.207 287.187 C 267.811 286.058,269.429 284.400,269.926 284.400 C 270.165 284.400,270.507 284.137,270.687 283.816 C 270.961 283.326,273.149 283.213,284.283 283.116 L 297.551 283.000 298.754 281.652 C 299.416 280.910,300.071 279.785,300.211 279.152 C 300.350 278.518,300.600 278.000,300.768 278.000 C 300.935 278.000,301.260 277.585,301.491 277.079 C 301.744 276.524,302.565 275.942,303.556 275.615 C 304.460 275.316,305.200 274.921,305.200 274.736 C 305.200 274.551,305.444 274.400,305.742 274.400 C 306.040 274.400,306.762 273.823,307.346 273.117 L 308.409 271.835 308.304 220.817 L 308.200 169.800 307.119 168.737 C 306.525 168.153,305.400 167.464,304.619 167.206 C 303.839 166.949,303.200 166.593,303.200 166.416 C 303.200 166.238,302.841 165.999,302.402 165.885 C 301.963 165.770,301.478 165.344,301.324 164.938 C 301.171 164.532,300.810 163.962,300.522 163.671 C 300.152 163.297,300.000 161.775,300.000 158.449 C 300.000 153.575,299.129 151.200,297.342 151.200 C 297.044 151.200,296.800 151.027,296.800 150.816 C 296.800 150.605,296.083 150.217,295.206 149.955 C 294.084 149.618,293.464 149.140,293.109 148.339 C 292.832 147.712,292.493 147.200,292.357 147.200 C 292.220 147.200,291.803 146.400,291.430 145.423 C 290.958 144.186,290.393 143.487,289.576 143.125 C 288.929 142.839,288.400 142.469,288.400 142.302 C 288.400 142.136,284.551 142.000,279.846 142.000 C 270.923 142.000,270.236 141.888,268.595 140.166 C 267.032 138.526,266.800 137.678,266.800 133.600 C 266.800 128.948,267.529 127.259,270.193 125.739 C 271.368 125.068,303.934 125.015,305.481 125.682 M256.800 153.366 L 258.200 153.871 258.301 229.965 L 258.402 306.059 257.232 307.230 C 256.588 307.873,255.641 308.400,255.126 308.400 C 254.260 308.400,251.192 310.648,251.197 311.279 C 251.203 311.908,249.311 313.499,248.040 313.934 C 247.088 314.260,241.485 314.400,229.340 314.400 C 219.698 314.400,212.000 314.555,212.000 314.750 C 212.000 314.943,211.443 315.211,210.763 315.347 C 209.246 315.651,207.345 317.611,206.859 319.373 C 206.660 320.093,206.083 321.159,205.576 321.741 L 204.656 322.800 167.003 322.800 C 124.759 322.800,127.945 323.027,127.334 319.969 C 127.205 319.326,126.942 318.800,126.750 318.800 C 126.558 318.800,126.400 318.573,126.400 318.296 C 126.400 317.423,124.387 315.577,123.169 315.334 C 122.526 315.205,122.000 314.943,122.000 314.750 C 122.000 314.557,116.200 314.400,109.089 314.400 C 95.555 314.400,94.400 314.257,94.400 312.577 C 94.400 312.260,94.243 312.000,94.050 312.000 C 93.858 312.000,93.589 311.443,93.453 310.763 C 93.149 309.246,91.189 307.345,89.427 306.859 C 88.707 306.660,87.641 306.083,87.059 305.576 L 86.000 304.656 86.000 229.351 L 86.000 154.045 86.889 153.423 C 88.098 152.576,254.456 152.520,256.800 153.366 M288.000 161.771 C 288.000 171.224,287.773 170.800,292.829 170.800 L 296.400 170.800 296.400 221.000 L 296.400 271.200 283.600 271.200 L 270.800 271.200 270.800 212.600 L 270.800 154.000 279.400 154.000 L 288.000 154.000 288.000 161.771 M102.728 156.792 C 102.138 156.970,101.150 157.585,100.532 158.158 C 99.914 158.731,99.293 159.200,99.152 159.200 C 98.009 159.200,97.357 193.867,98.426 197.720 C 98.926 199.518,100.926 201.565,102.488 201.878 C 103.100 202.000,103.600 202.258,103.600 202.450 C 103.600 202.643,103.960 202.800,104.400 202.800 C 104.840 202.800,105.200 202.643,105.200 202.450 C 105.200 202.258,105.757 201.989,106.437 201.853 C 108.003 201.539,109.858 199.574,110.388 197.669 C 110.939 195.684,110.935 163.103,110.384 161.117 C 109.482 157.872,105.885 155.840,102.728 156.792 M105.631 161.569 L 106.800 162.738 106.800 179.400 L 106.800 196.062 105.594 197.267 L 104.389 198.473 103.194 197.194 L 102.000 195.915 102.000 179.408 L 102.000 162.901 103.100 161.666 C 104.444 160.157,104.227 160.165,105.631 161.569 M103.600 214.750 C 103.600 214.943,103.100 215.200,102.488 215.322 C 98.831 216.054,98.004 218.650,98.004 229.400 C 98.004 240.150,98.831 242.746,102.488 243.478 C 103.100 243.600,103.600 243.857,103.600 244.050 C 103.600 244.243,103.960 244.400,104.400 244.400 C 104.840 244.400,105.200 244.243,105.200 244.050 C 105.200 243.857,105.757 243.589,106.437 243.453 C 109.992 242.742,110.796 240.150,110.796 229.400 C 110.796 218.650,109.992 216.058,106.437 215.347 C 105.757 215.211,105.200 214.943,105.200 214.750 C 105.200 214.558,104.840 214.400,104.400 214.400 C 103.960 214.400,103.600 214.558,103.600 214.750 M105.701 219.964 L 106.800 221.128 106.789 229.464 L 106.778 237.800 105.578 238.977 L 104.379 240.155 103.189 238.853 L 102.000 237.551 102.000 229.416 L 102.000 221.282 103.089 220.041 C 104.415 218.530,104.349 218.532,105.701 219.964 M88.836 311.499 C 89.476 312.103,90.000 312.823,90.000 313.099 C 90.000 313.374,90.145 313.600,90.323 313.600 C 90.501 313.600,90.950 314.289,91.322 315.132 C 91.694 315.974,92.493 316.919,93.099 317.232 C 93.704 317.544,94.438 318.025,94.729 318.300 C 95.129 318.679,98.397 318.800,108.215 318.800 L 121.172 318.800 122.297 319.900 C 122.915 320.505,123.673 321.608,123.981 322.352 C 124.743 324.194,126.372 325.886,127.700 326.215 C 128.305 326.364,128.800 326.647,128.800 326.843 C 128.800 327.276,205.074 327.333,205.267 326.900 C 205.340 326.735,206.032 326.308,206.805 325.952 C 207.577 325.596,208.477 324.786,208.805 324.152 C 209.132 323.518,209.625 322.762,209.900 322.471 C 210.175 322.181,210.405 321.731,210.411 321.471 C 210.417 321.212,210.934 320.498,211.560 319.884 L 212.699 318.768 230.382 318.884 C 245.857 318.986,248.123 319.078,248.533 319.625 C 248.790 319.968,249.301 320.363,249.670 320.501 C 250.735 320.900,249.787 323.450,248.334 324.093 C 247.710 324.369,247.200 324.707,247.200 324.843 C 247.200 324.980,246.400 325.397,245.423 325.770 C 244.186 326.242,243.487 326.807,243.125 327.624 C 242.839 328.271,242.493 328.800,242.357 328.800 C 242.220 328.800,241.802 329.603,241.427 330.584 C 240.892 331.986,240.452 332.474,239.373 332.864 C 238.618 333.137,238.000 333.495,238.000 333.659 C 238.000 333.824,233.871 334.013,228.824 334.079 L 219.648 334.200 218.424 335.572 C 217.751 336.327,217.200 337.173,217.200 337.452 C 217.200 337.732,216.975 338.104,216.699 338.280 C 216.424 338.456,215.967 339.050,215.685 339.601 C 214.376 342.150,217.424 342.000,167.013 342.000 C 131.210 342.000,121.085 341.892,120.340 341.500 C 119.066 340.830,117.929 339.630,117.200 338.188 C 116.870 337.535,116.285 336.651,115.900 336.225 C 115.515 335.798,115.200 335.332,115.200 335.189 C 115.200 334.293,112.586 334.000,104.581 334.000 C 99.621 334.000,96.000 333.845,96.000 333.632 C 96.000 333.429,95.448 333.142,94.774 332.994 C 94.032 332.831,93.376 332.346,93.110 331.763 C 92.869 331.233,92.557 330.800,92.416 330.800 C 92.276 330.800,91.919 330.125,91.624 329.300 C 90.944 327.398,89.802 326.256,87.900 325.576 C 87.075 325.281,86.400 324.924,86.400 324.784 C 86.400 324.643,85.967 324.331,85.437 324.090 C 84.854 323.824,84.369 323.168,84.206 322.426 C 84.058 321.752,83.771 321.200,83.568 321.200 C 82.617 321.200,83.160 312.877,84.177 311.859 C 85.960 310.076,87.225 309.978,88.836 311.499 " stroke="none" fill="#fcd47c" fill-rule="evenodd"></path><path id="path3" d="M246.368 153.867 C 246.351 154.490,246.246 154.775,246.135 154.500 C 245.896 153.907,234.000 153.767,234.000 154.357 C 234.000 154.553,233.505 154.837,232.900 154.989 C 232.295 155.141,231.499 155.588,231.131 155.982 C 230.764 156.376,229.774 156.828,228.932 156.986 C 228.091 157.144,227.311 157.392,227.201 157.537 C 227.090 157.682,226.044 158.126,224.874 158.526 C 223.540 158.981,222.126 159.874,221.074 160.926 L 219.400 162.600 219.400 172.515 C 219.400 179.130,219.543 182.524,219.829 182.715 C 220.065 182.872,220.499 184.575,220.794 186.500 C 221.088 188.425,221.451 190.000,221.600 190.000 C 221.749 190.000,222.109 191.800,222.400 194.000 C 222.691 196.200,223.055 198.000,223.208 198.000 C 223.361 198.000,223.708 199.620,223.978 201.600 C 224.249 203.580,224.606 205.200,224.771 205.200 C 226.317 205.200,226.308 225.764,224.762 226.333 C 224.563 226.407,224.400 227.055,224.400 227.774 C 224.400 229.246,223.677 231.600,223.224 231.600 C 223.061 231.600,222.711 232.320,222.447 233.200 C 222.184 234.080,221.829 234.800,221.659 234.800 C 221.488 234.800,221.102 235.430,220.800 236.200 C 220.498 236.970,220.129 237.600,219.980 237.600 C 219.831 237.600,219.380 239.220,218.978 241.200 C 218.576 243.180,218.118 244.800,217.960 244.800 C 217.802 244.800,217.460 246.060,217.200 247.600 C 216.940 249.140,216.593 250.400,216.428 250.400 C 216.262 250.400,215.915 251.349,215.655 252.509 C 215.365 253.807,214.879 254.808,214.392 255.112 C 213.956 255.384,213.600 255.815,213.600 256.070 C 213.600 256.601,213.277 256.983,210.274 260.000 C 207.634 262.652,207.305 262.919,205.562 263.817 C 204.813 264.203,203.947 264.878,203.637 265.317 C 203.328 265.755,202.653 266.481,202.137 266.929 C 201.622 267.378,201.200 267.939,201.200 268.176 C 201.200 268.413,200.840 268.832,200.400 269.107 C 199.960 269.382,199.600 269.785,199.600 270.003 C 199.600 270.508,198.122 272.000,197.623 272.000 C 197.415 272.000,197.010 272.330,196.723 272.732 C 196.435 273.135,195.331 273.681,194.269 273.946 C 193.206 274.211,191.967 274.772,191.515 275.194 C 191.062 275.615,190.191 276.070,189.579 276.205 C 188.967 276.339,188.373 276.693,188.259 276.990 C 188.104 277.394,186.813 277.566,183.197 277.666 C 179.077 277.780,178.283 277.906,177.951 278.500 C 177.736 278.885,177.294 279.200,176.968 279.200 C 176.642 279.200,176.280 279.447,176.164 279.749 C 176.048 280.051,175.154 280.628,174.177 281.031 C 173.199 281.434,172.400 281.907,172.400 282.082 C 172.400 282.257,172.132 282.400,171.803 282.400 C 171.475 282.400,170.982 282.760,170.707 283.200 C 170.432 283.640,169.991 284.000,169.726 284.000 C 169.462 284.000,169.010 284.333,168.723 284.740 C 168.435 285.148,167.637 285.771,166.948 286.126 C 166.260 286.480,165.591 287.047,165.461 287.385 C 165.331 287.723,164.956 288.000,164.627 288.000 C 164.297 288.000,163.840 288.352,163.609 288.783 C 163.376 289.219,162.573 289.681,161.795 289.827 C 161.028 289.971,160.400 290.221,160.400 290.381 C 160.400 290.542,159.275 291.008,157.900 291.417 C 156.525 291.827,155.308 292.291,155.195 292.450 C 155.083 292.609,153.105 292.946,150.800 293.200 C 148.495 293.454,146.475 293.872,146.311 294.131 C 146.099 294.463,146.010 294.468,146.006 294.149 C 146.003 293.900,145.460 293.473,144.800 293.200 C 144.140 292.927,143.600 292.557,143.600 292.378 C 143.600 292.200,143.217 291.932,142.750 291.784 C 142.282 291.636,141.082 290.719,140.082 289.748 C 139.083 288.776,137.800 287.868,137.232 287.729 C 136.665 287.590,136.110 287.365,136.000 287.228 C 135.890 287.092,134.405 286.639,132.700 286.223 C 130.995 285.807,129.600 285.316,129.600 285.133 C 129.600 284.950,129.216 284.800,128.746 284.800 C 127.793 284.800,124.710 283.961,124.400 283.617 C 123.307 282.406,115.600 282.402,115.600 283.613 C 115.600 283.770,114.873 284.014,113.985 284.156 C 113.096 284.298,112.267 284.681,112.142 285.007 C 112.017 285.333,111.709 285.601,111.457 285.602 C 111.038 285.604,108.990 287.255,106.986 289.207 C 106.538 289.643,105.952 290.000,105.682 290.000 C 105.107 290.000,102.800 291.978,102.800 292.471 C 102.800 293.128,98.794 296.786,97.803 297.035 C 97.251 297.173,96.800 297.403,96.800 297.546 C 96.800 297.878,93.864 298.800,92.806 298.800 C 92.363 298.800,92.000 298.955,92.000 299.145 C 92.000 299.335,90.650 299.708,89.000 299.974 L 86.000 300.458 86.000 302.557 C 86.000 304.931,87.002 306.189,89.427 306.859 C 91.189 307.345,93.149 309.246,93.453 310.763 C 93.589 311.443,93.858 312.000,94.050 312.000 C 94.243 312.000,94.400 312.260,94.400 312.577 C 94.400 314.257,95.555 314.400,109.089 314.400 C 116.200 314.400,122.000 314.557,122.000 314.750 C 122.000 314.943,122.526 315.205,123.169 315.334 C 124.387 315.577,126.400 317.423,126.400 318.296 C 126.400 318.573,126.558 318.800,126.750 318.800 C 126.942 318.800,127.205 319.326,127.334 319.969 C 127.945 323.027,124.759 322.800,167.003 322.800 L 204.656 322.800 205.576 321.741 C 206.083 321.159,206.660 320.093,206.859 319.373 C 207.345 317.611,209.246 315.651,210.763 315.347 C 211.443 315.211,212.000 314.943,212.000 314.750 C 212.000 314.555,219.698 314.400,229.340 314.400 C 241.485 314.400,247.088 314.260,248.040 313.934 C 249.311 313.499,251.203 311.908,251.197 311.279 C 251.192 310.648,254.260 308.400,255.126 308.400 C 255.641 308.400,256.588 307.874,257.231 307.231 L 258.400 306.062 258.400 230.021 L 258.400 153.980 257.300 153.508 C 256.695 153.249,253.995 152.969,251.300 152.886 L 246.400 152.735 246.368 153.867 " stroke="none" fill="#f3ae1b" fill-rule="evenodd"></path><path id="path4" d="" stroke="none" fill="#f4d0f8" fill-rule="evenodd"></path></g></svg>